HIERARCHY
ROOT Hips
{
	OFFSET 0.00000 0.00000 0.00000
	CHANNELS 6 Xposition Yposition Zposition Zrotation Yrotation Xrotation 
	JOINT LHipJoint
	{
		OFFSET 0 0 0
		CHANNELS 3 Zrotation Yrotation Xrotation
		JOINT LeftHip
		{
			OFFSET 1.92384 -1.64427 0.83032
			CHANNELS 3 Zrotation Yrotation Xrotation
			JOINT LeftKnee
			{
				OFFSET 2.52872 -6.94761 0.00000
				CHANNELS 3 Zrotation Yrotation Xrotation
				JOINT LeftAnkle
				{
					OFFSET 2.51827 -6.91890 0.00000
					CHANNELS 3 Zrotation Yrotation Xrotation
					JOINT LeftToe
					{
						OFFSET 0.22757 -0.62524 2.06528
						CHANNELS 3 Zrotation Yrotation Xrotation
						End Site
						{
							OFFSET 0.00000 -0.00000 1.08218
						}
					}
				}
			}
		}
	}
	JOINT RHipJoint
	{
		OFFSET 0 0 0
		CHANNELS 3 Zrotation Yrotation Xrotation
		JOINT RightHip
		{
			OFFSET -2.09517 -1.64427 0.83032
			CHANNELS 3 Zrotation Yrotation Xrotation
			JOINT RightKnee
			{
				OFFSET -2.55173 -7.01082 0.00000
				CHANNELS 3 Zrotation Yrotation Xrotation
				JOINT RightAnkle
				{
					OFFSET -2.50265 -6.87598 0.00000
					CHANNELS 3 Zrotation Yrotation Xrotation
					JOINT RightToe
					{
						OFFSET -0.22612 -0.62126 1.98677
						CHANNELS 3 Zrotation Yrotation Xrotation
						End Site
						{
							OFFSET -0.00000 -0.00000 1.04433
						}
					}
				}
			}
		}
	}
	JOINT lowerback
	{
		OFFSET 0 0 0
		CHANNELS 3 Zrotation Yrotation Xrotation
		JOINT Chest
		{
			OFFSET 0.02839 1.68926 0.31690
			CHANNELS 3 Zrotation Yrotation Xrotation
			JOINT Chest2
			{
				OFFSET -0.01522 1.70183 0.21192
				CHANNELS 3 Zrotation Yrotation Xrotation
				JOINT lowerneck
				{
					OFFSET 0 0 0
					CHANNELS 3 Zrotation Yrotation Xrotation
					JOINT Neck
					{
						OFFSET -0.04523 1.88988 0.10630
						CHANNELS 3 Zrotation Yrotation Xrotation
						JOINT Head
						{
							OFFSET 0.05172 1.78070 -0.56858
							CHANNELS 3 Zrotation Yrotation Xrotation
							End Site
							{
								OFFSET 0.01532 1.90392 -0.20434
							}
						}
					}
				}
				JOINT LeftCollar
				{
					OFFSET 0 0 0
					CHANNELS 3 Zrotation Yrotation Xrotation
					JOINT LeftShoulder
					{
						OFFSET 3.25522 0.75486 0.22086
CHANNELS 3 Zrotation Xrotation Yrotation
						JOINT LeftElbow
						{
OFFSET 0 -4.856450 0.000000
CHANNELS 3 Zrotation Xrotation Yrotation
							JOINT LeftWrist
							{
OFFSET 0 -2.798740 0.000000
CHANNELS 3 Zrotation Xrotation Yrotation
								JOINT lhand
								{
									OFFSET 0 0 0
CHANNELS 3 Zrotation Xrotation Yrotation
									JOINT LFingers
									{
OFFSET 0 -0.573400 0.000000
CHANNELS 3 Zrotation Xrotation Yrotation
										End Site
										{
OFFSET 0 -0.462290 0.000000
										}
									}
								}
								JOINT LThumb
								{
OFFSET 0 0.000000 0.000000
CHANNELS 3 Zrotation Xrotation Yrotation
									End Site
									{
OFFSET 0 -0.469350 0.469350
									}
								}
							}
						}
					}
				}
				JOINT RightCollar
				{
					OFFSET 0 0 0
					CHANNELS 3 Zrotation Yrotation Xrotation
					JOINT RightShoulder
					{
						OFFSET -3.29079 0.52751 0.36356
CHANNELS 3 Zrotation Xrotation Yrotation
						JOINT RightElbow
						{
OFFSET 0 -4.670180 0.000000
CHANNELS 3 Zrotation Xrotation Yrotation
							JOINT RightWrist
							{
OFFSET 0 -2.655340 0.000000
CHANNELS 3 Zrotation Xrotation Yrotation
								JOINT rhand
								{
									OFFSET 0 0 0
CHANNELS 3 Zrotation Xrotation Yrotation
									JOINT RFingers
									{
OFFSET 0 -0.594070 0.000000
CHANNELS 3 Zrotation Xrotation Yrotation
										End Site
										{
OFFSET 0 -0.478950 0.000000
										}
									}
								}
								JOINT RThumb
								{
OFFSET 0 0.000000 0.000000
CHANNELS 3 Zrotation Xrotation Yrotation
									End Site
									{
OFFSET 0 -0.486270 0.486270
									}
								}
							}
						}
					}
				}
			}
		}
	}
}
MOTION
Frames: 8
Frame Time: 0.008333333333333333
2.952100 16.937200 42.761000 -2.244300 17.448600 28.406700 0.000000 0.000000 0.000000 -12.180600 -13.174500 -36.234200 5.666700 14.097400 43.629000 0.728900 -4.638100 -15.230000 2.587700 -9.995700 -28.962700 0.000000 0.000000 0.000000 16.751000 20.216300 -41.975600 -1.810000 -8.458600 24.115800 -0.116900 -4.009500 -9.180300 -0.027000 -1.060200 2.914400 2.822100 1.553400 -20.507500 -1.648800 1.810200 -14.000500 -3.057300 0.745000 -3.661200 17.092600 15.193800 -5.695200 0.326700 19.000500 23.128700 -0.299400 10.403100 9.971300 -0.000000 -0.000000 0.000000 12.745400 14.634900 -32.928700 22.337900 -33.356800 6.770700 10.079500 4.733700 -24.536700 0.000000 0.000000 0.000000 -7.125000 0.000000 0.000000 -20.185600 53.701400 4.459800 -0.000000 -0.000000 0.000000 -4.925700 30.331500 21.254900 -23.666900 -34.810000 -7.515500 -15.534100 7.654500 14.145200 0.000000 0.000000 0.000000 7.125000 0.000000 -0.000000 10.990500 44.356700 0.176700
2.914971 16.933911 42.850141 -2.511968 17.997799 28.583829 0.000000 0.000000 0.000000 -11.235748 -13.170181 -38.010922 6.278338 14.691997 46.087394 0.577867 -5.377352 -13.539121 2.409159 -9.670728 -27.916903 0.000000 0.000000 0.000000 17.481751 19.977981 -41.923969 -1.792468 -8.419691 23.996115 -0.129567 -3.919192 -9.383439 -0.029551 -1.109923 3.051262 3.083748 1.645627 -20.558785 -1.651318 1.898535 -14.101876 -3.194389 0.772754 -3.740653 17.078578 15.024289 -5.703274 0.366370 18.762032 23.296728 -0.314101 10.302452 10.008354 0.000000 0.000000 0.000000 12.283242 14.649759 -31.823501 22.510045 -33.548672 6.865636 10.404688 4.129832 -24.733502 0.000000 0.000000 0.000000 -7.125000 0.000000 0.000000 -19.978365 53.945545 4.532546 0.000000 0.000000 0.000000 -4.628190 30.009673 20.221548 -22.956250 -34.040643 -7.113925 -15.742115 7.649197 14.369108 0.000000 0.000000 0.000000 7.125000 0.000000 0.000000 10.860423 44.607061 0.106689
2.882099 16.932960 42.935105 -2.622389 18.448092 28.781782 0.000000 0.000000 0.000000 -10.539676 -13.217412 -39.668824 6.847860 15.201412 48.294652 0.476517 -5.619126 -12.327682 2.307880 -9.479769 -27.308080 0.000000 0.000000 0.000000 17.953710 19.822453 -41.870059 -1.782926 -8.398557 23.931425 -0.141875 -3.927334 -9.659253 -0.032643 -1.166364 3.206725 3.206012 1.728128 -20.504628 -1.695544 2.000405 -14.265992 -3.299060 0.812198 -3.943018 17.088468 14.955995 -5.577590 0.382638 18.697612 23.440205 -0.323897 10.283611 10.032072 0.000000 0.000000 0.000000 11.895690 14.834780 -31.004761 22.740679 -33.803980 6.993500 10.754864 3.659065 -24.452068 0.000000 0.000000 0.000000 -7.125000 0.000000 0.000000 -19.480538 53.744327 4.315287 0.000000 0.000000 0.000000 -4.502292 29.792425 19.521683 -22.260785 -33.269989 -6.728522 -15.628095 7.706673 14.316383 0.000000 0.000000 0.000000 7.125000 0.000000 0.000000 10.949888 44.540469 0.125737
2.851439 16.930847 43.017363 -2.737904 18.866827 28.957696 0.000000 0.000000 0.000000 -9.902459 -13.253624 -41.202063 7.364815 15.630637 50.239350 0.404250 -5.277989 -11.359736 2.206178 -9.282645 -26.683761 0.000000 0.000000 0.000000 18.421182 19.676829 -41.808654 -1.774444 -8.379589 23.873015 -0.154355 -3.938931 -9.933797 -0.033746 -1.185846 3.260394 3.328814 1.803276 -20.482979 -1.722502 2.090690 -14.396926 -3.386287 0.847166 -4.093032 17.014646 14.883213 -5.649152 0.520568 18.575245 23.745299 -0.268778 10.243748 10.124194 0.000000 0.000000 0.000000 11.509047 14.944850 -30.228876 22.877111 -33.954152 7.069514 10.959423 3.358667 -24.088547 0.000000 0.000000 0.000000 -7.125000 0.000000 0.000000 -19.084760 53.437550 4.076951 0.000000 0.000000 0.000000 -4.487560 29.539994 19.022978 -21.609306 -32.532178 -6.374709 -15.408008 7.879054 14.308572 0.000000 0.000000 0.000000 7.125000 0.000000 0.000000 11.146442 44.507238 0.137344
2.825084 16.930000 43.097404 -2.840839 19.247347 29.104181 0.000000 0.000000 0.000000 -9.377987 -13.298834 -42.579503 7.808683 15.976124 51.869788 0.381717 -4.219773 -10.993488 2.082110 -9.034659 -25.904072 0.000000 0.000000 0.000000 18.874540 19.511285 -41.698562 -1.760685 -8.348701 23.778422 -0.166463 -3.938722 -10.182951 -0.034297 -1.195949 3.288112 3.448404 1.877518 -20.483763 -1.745756 2.178813 -14.509591 -3.467247 0.881733 -4.211317 16.885484 14.808127 -5.819922 0.760241 18.415773 24.145409 -0.166351 10.193391 10.250581 0.000000 0.000000 0.000000 11.147297 15.046906 -29.581854 22.937862 -34.020739 7.103467 11.092555 3.345415 -23.702032 0.000000 0.000000 0.000000 -7.125000 0.000000 0.000000 -18.751534 53.094743 3.841524 0.000000 0.000000 0.000000 -4.585947 29.291460 18.737380 -21.020097 -31.851398 -6.060765 -15.033782 8.228728 14.265784 0.000000 0.000000 0.000000 7.125000 0.000000 0.000000 11.472400 44.421184 0.166265
2.803320 16.931543 43.176062 -2.935591 19.600364 29.235615 0.000000 0.000000 0.000000 -8.944718 -13.380622 -43.797657 8.154189 16.231277 53.115800 0.387665 -2.656997 -11.154259 1.911216 -8.677787 -24.792924 0.000000 0.000000 0.000000 19.321649 19.311680 -41.546274 -1.738727 -8.299232 23.626745 -0.178036 -3.907283 -10.386304 -0.035250 -1.211858 3.332011 3.579872 1.953569 -20.515895 -1.776681 2.266441 -14.624743 -3.562764 0.914695 -4.316500 16.810622 14.712307 -5.892260 0.998854 18.235468 24.487301 -0.084326 10.138861 10.343724 0.000000 0.000000 0.000000 10.825974 15.188261 -29.113067 22.967596 -34.053361 7.120138 11.289255 3.552051 -23.503447 0.000000 0.000000 0.000000 -7.125000 0.000000 0.000000 -18.457848 52.940615 3.706842 0.000000 0.000000 0.000000 -4.734682 29.080524 18.591838 -20.499176 -31.238821 -5.788177 -14.665925 8.699338 14.140431 0.000000 0.000000 0.000000 7.125000 0.000000 0.000000 11.769991 44.253222 0.220161
2.785325 16.936078 43.252726 -2.998788 19.916725 29.362978 0.000000 0.000000 0.000000 -8.588459 -13.539623 -44.851083 8.383600 16.394234 53.932797 0.393740 -0.927306 -11.571862 1.708048 -8.228662 -23.411128 0.000000 0.000000 0.000000 19.711188 19.118086 -41.356347 -1.710072 -8.234046 23.427204 -0.187875 -3.886435 -10.561270 -0.036314 -1.230447 3.383206 3.692569 2.021673 -20.559015 -1.820175 2.345876 -14.745286 -3.662559 0.943867 -4.422854 16.885031 14.591695 -5.736013 1.116762 18.064956 24.648247 -0.085644 10.088699 10.358852 0.000000 0.000000 0.000000 10.548849 15.379253 -28.932853 23.030162 -34.121763 7.155157 11.813996 3.762915 -23.666535 0.000000 0.000000 0.000000 -7.125000 0.000000 0.000000 -18.030659 53.189054 3.727757 0.000000 0.000000 0.000000 -4.890746 28.890893 18.543385 -20.039081 -30.689240 -5.551349 -14.480679 9.176193 13.944003 0.000000 0.000000 0.000000 7.125000 0.000000 0.000000 11.884228 44.035225 0.287182
2.770979 16.943341 43.326426 -2.998936 20.194313 29.484390 0.000000 0.000000 0.000000 -8.311140 -13.806741 -45.715934 8.486951 16.465951 54.298214 0.389320 0.643044 -12.038324 1.520877 -7.787047 -22.069270 0.000000 0.000000 0.000000 19.994708 18.946366 -41.134518 -1.680158 -8.165454 23.217623 -0.196471 -3.907684 -10.743608 -0.036900 -1.240090 3.409520 3.755412 2.069523 -20.595132 -1.876606 2.405934 -14.856759 -3.751337 0.965982 -4.524578 16.998285 14.466840 -5.557907 1.234649 17.885412 24.783612 -0.095626 10.037295 10.364525 0.000000 0.000000 0.000000 10.293958 15.576156 -28.903190 23.076641 -34.172491 7.181301 12.378085 3.892537 -23.819065 0.000000 0.000000 0.000000 -7.125000 0.000000 0.000000 -17.557218 53.435951 3.732787 0.000000 0.000000 0.000000 -5.039023 28.666476 18.533970 -19.618384 -30.179796 -5.338222 -14.485710 9.649061 13.780331 0.000000 0.000000 0.000000 7.125000 0.000000 0.000000 11.837039 43.871582 0.334592
